HIERARCHY
ROOT Hips
{
 OFFSET 0.000000 0.000000 0.000000
 CHANNELS 6 Xposition Yposition Zposition Yrotation Xrotation Zrotation
 JOINT Chest
 {
  OFFSET 0.000000 10.383400 0.001500
  CHANNELS 3 Yrotation Xrotation Zrotation
  JOINT Chest2
  {
   OFFSET 0.000000 10.418200 -0.003100
   CHANNELS 3 Yrotation Xrotation Zrotation
   JOINT Chest3
   {
    OFFSET 0.000000 10.375100 0.000000
    CHANNELS 3 Yrotation Xrotation Zrotation
    JOINT Chest4
    {
     OFFSET 0.000000 10.364600 0.000000
     CHANNELS 3 Yrotation Xrotation Zrotation
     JOINT Neck
     {
      OFFSET 0.000000 15.642200 0.000000
      CHANNELS 3 Yrotation Xrotation Zrotation
      JOINT Head
      {
       OFFSET 0.000000 9.697300 -0.006500
       CHANNELS 3 Yrotation Xrotation Zrotation
       End Site
       {
        OFFSET 0.000000 18.492200 -0.003400
       }
      }
     }
     JOINT RightCollar
     {
      OFFSET -3.166800 10.349300 0.000000
      CHANNELS 3 Yrotation Xrotation Zrotation
      JOINT RightShoulder
      {
       OFFSET -14.729700 0.000000 0.000000
       CHANNELS 3 Yrotation Xrotation Zrotation
       JOINT RightElbow
       {
        OFFSET 0.000000 -32.224300 0.000000
        CHANNELS 3 Yrotation Xrotation Zrotation
        JOINT RightWrist
        {
         OFFSET 0.000000 -26.084100 0.000000
         CHANNELS 3 Yrotation Xrotation Zrotation
         End Site
         {
          OFFSET 0.000000 -19.319400 0.000000
         }
        }
       }
      }
     }
     JOINT LeftCollar
     {
      OFFSET 3.166800 10.349300 0.000000
      CHANNELS 3 Yrotation Xrotation Zrotation
      JOINT LeftShoulder
      {
       OFFSET 14.729700 0.000000 0.000000
       CHANNELS 3 Yrotation Xrotation Zrotation
       JOINT LeftElbow
       {
        OFFSET 0.000000 -32.224300 0.000000
        CHANNELS 3 Yrotation Xrotation Zrotation
        JOINT LeftWrist
        {
         OFFSET 0.000000 -26.084100 0.000000
         CHANNELS 3 Yrotation Xrotation Zrotation
         End Site
         {
          OFFSET 0.000000 -19.319400 0.000000
         }
        }
       }
      }
     }
    }
   }
  }
 }
 JOINT RightHip
 {
  OFFSET -8.428900 -0.007500 -0.000800
  CHANNELS 3 Yrotation Xrotation Zrotation
  JOINT RightKnee
  {
   OFFSET 0.000000 -43.834600 0.000700
   CHANNELS 3 Yrotation Xrotation Zrotation
   JOINT RightAnkle
   {
    OFFSET 0.000000 -42.757000 0.001200
    CHANNELS 3 Yrotation Xrotation Zrotation
    JOINT RightToe
    {
     OFFSET 0.000000 -6.946900 15.649300
     CHANNELS 3 Yrotation Xrotation Zrotation
     End Site
     {
      OFFSET 0.000000 -1.580800 6.825800
     }
    }
   }
  }
 }
 JOINT LeftHip
 {
  OFFSET 8.428900 -0.007500 -0.000800
  CHANNELS 3 Yrotation Xrotation Zrotation
  JOINT LeftKnee
  {
   OFFSET 0.000000 -43.834600 0.000700
   CHANNELS 3 Yrotation Xrotation Zrotation
   JOINT LeftAnkle
   {
    OFFSET 0.000000 -42.757000 0.001200
    CHANNELS 3 Yrotation Xrotation Zrotation
    JOINT LeftToe
    {
     OFFSET 0.000000 -6.946900 15.649300
     CHANNELS 3 Yrotation Xrotation Zrotation
     End Site
     {
      OFFSET 0.000000 -1.580800 6.825800
     }
    }
   }
  }
 }
}
MOTION
Frames: 8
Frame Time: 0.008333
-3.164608 126.064619 -0.101985 172.830838 -14.567890 -3.875296 -1.955910 13.736152 1.503398 -0.159361 1.168592 0.156663 -0.321276 1.963184 0.233368 -1.728916 12.386590 1.390007 -3.285711 13.138134 0.161706 -3.496212 -11.878109 0.919748 2.789852 -0.181017 -2.428188 14.275658 -6.880530 -5.609766 -158.460338 -76.312409 -179.737280 -0.072010 -16.978427 -28.894529 -6.005078 1.071828 1.232163 -2.999469 -17.549052 1.970892 70.707017 -51.035200 -109.441277 6.909957 -1.975772 -13.941719 -0.471956 -54.207997 10.485064 -85.101835 84.578040 -80.366508 0.628856 -15.830097 0.512075 -0.004462 -0.003674 -0.001980 -1.331494 -55.786206 -1.818686 101.245472 78.679721 107.739591 10.378908 -13.211417 -9.309306 0.000904 0.002430 0.000402
-3.165309 126.065376 -0.102127 172.821517 -14.581543 -3.851429 -1.913611 13.755952 1.513996 -0.175602 1.165932 0.145839 -0.319875 1.965739 0.230439 -1.720254 12.391344 1.392755 -3.194286 13.098326 0.140051 -3.404694 -11.926194 0.875645 2.808172 -0.195509 -2.420455 14.310726 -6.875595 -5.618280 -158.777256 -76.279377 -179.449905 -0.081242 -16.941580 -28.957218 -5.987356 1.083767 1.253601 -3.027957 -17.547943 1.943043 70.704910 -50.917238 -109.364258 6.889259 -2.007772 -13.941632 -0.447642 -54.193854 10.460962 -85.054748 84.580103 -80.322310 0.623626 -15.834784 0.508129 -0.001176 -0.002646 -0.000522 -1.298932 -55.775042 -1.852471 101.244133 78.684070 107.732229 10.392056 -13.204411 -9.308041 -0.000958 0.000892 -0.000425
-3.163600 126.065992 -0.101245 172.820051 -14.589331 -3.844168 -1.894028 13.766927 1.526253 -0.178627 1.166534 0.142073 -0.312250 1.969561 0.233730 -1.736282 12.386896 1.384002 -3.089932 13.071660 0.124570 -3.322947 -11.970779 0.832666 2.848659 -0.197071 -2.406956 14.360293 -6.875900 -5.627192 -159.058306 -76.253330 -179.214417 -0.022524 -16.937825 -29.017770 -5.948758 1.105787 1.275437 -3.059381 -17.546289 1.916477 70.724673 -50.847149 -109.322563 6.893038 -2.043830 -13.918332 -0.445179 -54.185339 10.459499 -85.013032 84.580074 -80.282420 0.617595 -15.833557 0.504488 0.001016 -0.001342 0.000451 -1.288498 -55.769523 -1.862968 101.250421 78.686062 107.741878 10.393104 -13.202713 -9.310940 0.000385 0.001984 0.000171
-3.162175 126.066397 -0.100049 172.819170 -14.593541 -3.836507 -1.877687 13.774788 1.539105 -0.190065 1.163734 0.129382 -0.293113 1.977537 0.245882 -1.717809 12.396006 1.389930 -3.031752 13.031034 0.104171 -3.248864 -12.012982 0.789625 2.866312 -0.213745 -2.394770 14.353023 -6.872457 -5.646561 -159.189554 -76.216281 -179.084491 0.069822 -16.979910 -29.050097 -5.951251 1.108023 1.291669 -3.078588 -17.511184 1.881055 70.785100 -50.845299 -109.379920 6.908286 -2.087446 -13.851225 -0.443835 -54.180837 10.456476 -84.998714 84.578525 -80.273680 0.616560 -15.836505 0.503686 0.000573 -0.001280 0.000254 -1.276700 -55.767179 -1.874473 101.244020 78.682626 107.736881 10.378966 -13.199759 -9.307804 -0.002421 0.005498 -0.001075
-3.161609 126.066925 -0.100066 172.819734 -14.602396 -3.824521 -1.866071 13.788406 1.547289 -0.186854 1.162615 0.129428 -0.278237 1.988159 0.261919 -1.684099 12.415346 1.412842 -3.015212 12.973193 0.057267 -3.180726 -12.053422 0.746728 2.842331 -0.250114 -2.410838 14.362913 -6.865529 -5.664211 -159.249391 -76.173526 -179.023694 0.093171 -16.979152 -29.074624 -5.987642 1.086374 1.283951 -3.056567 -17.407330 1.831845 70.940152 -50.863196 -109.520293 6.891398 -2.088155 -13.837781 -0.429245 -54.174446 10.438859 -85.044719 84.580359 -80.323090 0.613847 -15.840898 0.505199 -0.000245 -0.002019 -0.000109 -1.256438 -55.763638 -1.894544 101.253480 78.684862 107.746173 10.372572 -13.195330 -9.303560 -0.003665 0.003675 -0.001627
-3.160661 126.067123 -0.098745 172.816530 -14.603021 -3.815513 -1.850283 13.794180 1.560058 -0.185923 1.165547 0.130628 -0.271669 1.991518 0.268089 -1.686223 12.414487 1.409389 -2.952509 12.941792 0.034812 -3.119503 -12.091508 0.704939 2.840544 -0.263937 -2.412996 14.493050 -6.871791 -5.653858 -159.438390 -76.153691 -178.923297 0.111646 -16.980580 -29.102738 -5.995955 1.080849 1.284374 -3.030849 -17.356693 1.807823 71.051988 -50.881501 -109.588851 6.885000 -2.084482 -13.825105 -0.420429 -54.176982 10.426495 -85.046811 84.577052 -80.327970 0.619800 -15.837993 0.503922 -0.001732 -0.003815 -0.000769 -1.225605 -55.771292 -1.909173 101.294147 78.699621 107.791255 10.373125 -13.187535 -9.302847 0.001022 0.000806 0.000454
-3.160157 126.067411 -0.098013 172.811699 -14.605777 -3.804136 -1.831424 13.801031 1.571848 -0.188592 1.166252 0.130027 -0.276230 1.990075 0.260659 -1.689578 12.413231 1.406413 -2.874565 12.922462 0.023909 -3.065725 -12.125845 0.663875 2.855818 -0.269844 -2.403721 14.558412 -6.876970 -5.650514 -159.533216 -76.119562 -178.855095 0.129458 -16.966648 -29.143028 -5.987288 1.084853 1.293319 -2.998688 -17.309388 1.788024 71.114544 -50.900433 -109.673724 6.875857 -2.115978 -13.774401 -0.403601 -54.175247 10.410676 -85.034941 84.575950 -80.319024 0.617822 -15.841514 0.502556 -0.002522 -0.004225 -0.001119 -1.195966 -55.774368 -1.926468 101.323005 78.706207 107.818686 10.365614 -13.184389 -9.296632 -0.000084 -0.000014 -0.000037
-3.158934 126.067683 -0.096926 172.809094 -14.606250 -3.798294 -1.813665 13.803821 1.589346 -0.185275 1.171542 0.131077 -0.285240 1.986709 0.251869 -1.660058 12.424304 1.429721 -2.838492 12.892978 -0.004558 -3.015643 -12.154877 0.622356 2.853430 -0.292980 -2.394654 14.575597 -6.873536 -5.670432 -159.616267 -76.078409 -178.765209 0.143454 -16.918887 -29.196923 -5.991838 1.074237 1.299986 -2.979453 -17.270449 1.755295 71.168152 -50.915381 -109.750709 6.878730 -2.158396 -13.733670 -0.388208 -54.177092 10.397860 -85.026214 84.574721 -80.309685 0.617732 -15.839035 0.504370 -0.002944 -0.004025 -0.001307 -1.170363 -55.779319 -1.940480 101.346492 78.714040 107.844179 10.381877 -13.174838 -9.303537 0.004437 0.000624 0.001970
